<svg width="900" height="1200" viewBox="0 0 900 1200" fill="none" xmlns="http://www.w3.org/2000/svg">
  <defs>
    <linearGradient id="bg3" x1="0" y1="0" x2="1" y2="1">
      <stop offset="0" stop-color="#7A3E66"/>
      <stop offset="1" stop-color="#D1867D"/>
    </linearGradient>
  </defs>
  <rect width="900" height="1200" fill="url(#bg3)"/>
  <g fill="#FFE7D6" opacity="0.35">
    <path d="M210 230C210 190 242 158 282 158C322 158 354 190 354 230C354 270 322 302 282 302C242 302 210 270 210 230Z"/>
    <path d="M492 360C492 326 520 298 554 298C588 298 616 326 616 360C616 394 588 422 554 422C520 422 492 394 492 360Z"/>
    <path d="M270 620C270 584 300 554 336 554C372 554 402 584 402 620C402 656 372 686 336 686C300 686 270 656 270 620Z"/>
  </g>
  <path d="M140 980C240 760 360 760 460 980" stroke="#FFD9A0" stroke-width="8" stroke-linecap="round" opacity="0.6"/>
  <path d="M430 980C530 730 650 730 750 980" stroke="#FFD9A0" stroke-width="8" stroke-linecap="round" opacity="0.6"/>
</svg>
