<svg width="1200" height="900" viewBox="0 0 1200 900" fill="none" xmlns="http://www.w3.org/2000/svg">
  <defs>
    <linearGradient id="bg" x1="0" y1="0" x2="1" y2="1">
      <stop offset="0" stop-color="#1E3A5F"/>
      <stop offset="0.55" stop-color="#2C3B6D"/>
      <stop offset="1" stop-color="#2A6A73"/>
    </linearGradient>
    <linearGradient id="gold" x1="0" y1="0" x2="1" y2="1">
      <stop offset="0" stop-color="#E9C46A"/>
      <stop offset="1" stop-color="#B8860B"/>
    </linearGradient>
  </defs>
  <rect width="1200" height="900" rx="36" fill="url(#bg)"/>
  <g opacity="0.15" stroke="url(#gold)" stroke-width="2">
    <path d="M0 140H1200"/>
    <path d="M0 280H1200"/>
    <path d="M0 420H1200"/>
    <path d="M0 560H1200"/>
    <path d="M0 700H1200"/>
    <path d="M180 0V900"/>
    <path d="M360 0V900"/>
    <path d="M540 0V900"/>
    <path d="M720 0V900"/>
    <path d="M900 0V900"/>
    <path d="M1080 0V900"/>
  </g>
  <circle cx="980" cy="180" r="170" fill="#E9C46A" fill-opacity="0.12"/>
  <circle cx="230" cy="770" r="200" fill="#E9C46A" fill-opacity="0.08"/>
  <path d="M130 610C300 470 460 470 620 610" stroke="#F4E6B2" stroke-opacity="0.35" stroke-width="7" stroke-linecap="round"/>
  <path d="M210 650C360 540 500 540 640 650" stroke="#F4E6B2" stroke-opacity="0.28" stroke-width="5" stroke-linecap="round"/>
</svg>
