<svg width="1200" height="900" viewBox="0 0 1200 900" fill="none" xmlns="http://www.w3.org/2000/svg">
  <defs>
    <linearGradient id="bg2" x1="0" y1="0" x2="1" y2="1">
      <stop offset="0" stop-color="#4A1F45"/>
      <stop offset="0.55" stop-color="#8C2F5D"/>
      <stop offset="1" stop-color="#B07D20"/>
    </linearGradient>
  </defs>
  <rect width="1200" height="900" rx="36" fill="url(#bg2)"/>
  <g opacity="0.16" fill="#FFF4D6">
    <path d="M175 130L235 235L115 235L175 130Z"/>
    <path d="M480 205L560 345L400 345L480 205Z"/>
    <path d="M860 165L950 320L770 320L860 165Z"/>
    <path d="M1030 480L1120 635L940 635L1030 480Z"/>
    <path d="M730 560L810 700L650 700L730 560Z"/>
    <path d="M300 520L370 640L230 640L300 520Z"/>
  </g>
  <path d="M0 760C210 650 420 650 640 760C820 850 1000 840 1200 760V900H0V760Z" fill="#1E3A5F" fill-opacity="0.34"/>
  <path d="M0 800C220 710 450 715 670 800C840 865 1020 865 1200 810V900H0V800Z" fill="#0E243E" fill-opacity="0.38"/>
</svg>
